{"title":"Enrique Iglesias Ft. Pitbull - Let Me Be Your Lover (1080p)","uid":11717366,"size":134097884,"categoryP":"video","categoryS":"music_videos","magnet":"?xt=urn:btih:988ce4580412726e96627ed310bf566969c1c1eb&amp;dn=Enrique+Iglesias+Ft.+Pitbull+-+Let+Me+Be+Your+Lover+%281080p%29&amp;tr=udp%3A%2F%2Ftracker.openbittorrent.com%3A80&amp;tr=udp%3A%2F%2Fopen.demonii.com%3A1337&amp;tr=udp%3A%2F%2Ftracker.coppersurfer.tk%3A6969&amp;tr=udp%3A%2F%2Fexodus.desync.com%3A6969","seeders":5,"leechers":1,"uploader":"MusicVideos-HQ","files":1,"time":1424645818,"description":"Capturas: http://imgur.com/MX8NDBP\n\nGeneral\n\nComplete name                  : C:UsersEliasVideosvid3EnriqueIglesiasFt.Pitbull-LetMeBeYourLover-musicvideos-hq.net.mp4\nFormat                         : MPEG-4\nFormat profile                 : Base Media\nCodec ID                       : isom\nFile size                      : 128 MiB\nDuration                       : 4mn 34s\nOverall bit rate               : 3 904 Kbps\nWriting application            : Lavf55.33.100\n\nVideo\nID                             : 1\nFormat                         : AVC\nFormat/Info                    : Advanced Video Codec\nFormat profile                 : &lt;a class=&quot;__cf_email__&quot; href=&quot;/cdn-cgi/l/email-protection&quot; data-cfemail=&quot;024a6b656a424e362c32&quot;&gt;[email&amp;#160;protected]&lt;/a&gt;&lt;script cf-hash='f9e31' type=&quot;text/javascript&quot;&gt;\n/* &lt;![CDATA[ */!function(){try{var t=&quot;currentScript&quot;in document?document.currentScript:function(){for(var t=document.getElementsByTagName(&quot;script&quot;),e=t.length;e--;)if(t[e].getAttribute(&quot;cf-hash&quot;))return t[e]}();if(t&amp;&amp;t.previousSibling){var e,r,n,i,c=t.previousSibling,a=c.getAttribute(&quot;data-cfemail&quot;);if(a){for(e=&quot;&quot;,r=parseInt(a.substr(0,2),16),n=2;a.length-n;n+=2)i=parseInt(a.substr(n,2),16)^r,e+=String.fromCharCode(i);e=document.createTextNode(e),c.parentNode.replaceChild(e,c)}}}catch(u){}}();/* ]]&gt; */&lt;/script&gt;\nFormat settings, CABAC         : Yes\nFormat settings, ReFrames      : 2 frames\nCodec ID                       : avc1\nCodec ID/Info                  : Advanced Video Coding\nDuration                       : 4mn 34s\nBit rate                       : 3 772 Kbps\nWidth                          : 1 920 pixels\nHeight                         : 1 080 pixels\nDisplay aspect ratio           : 16:9\nFrame rate mode                : Variable\nFrame rate                     : 23.976 fps\nMinimum frame rate             : 23.974 fps\nMaximum frame rate             : 90 000.000 fps\nColor space                    : YUV\nChroma subsampling             : 4:2:0\nBit depth                      : 8 bits\nScan type                      : Progressive\nBits/(Pixel*Frame)             : 0.076\nStream size                    : 124 MiB (97%)\n\nAudio\nID                             : 2\nFormat                         : AAC\nFormat/Info                    : Advanced Audio Codec\nFormat profile                 : LC\nCodec ID                       : 40\nDuration                       : 4mn 34s\nBit rate mode                  : Constant\nBit rate                       : 126 Kbps\nChannel(s)                     : 2 channels\nChannel positions              : Front: L R\nSampling rate                  : 44.1 KHz\nCompression mode               : Lossy\nStream size                    : 4.11 MiB (3%)","torrent":{"xt":"urn:btih:988ce4580412726e96627ed310bf566969c1c1eb","amp;dn":"Enrique+Iglesias+Ft.+Pitbull+-+Let+Me+Be+Your+Lover+%281080p%29","amp;tr":["udp%3A%2F%2Ftracker.openbittorrent.com%3A80","udp%3A%2F%2Fopen.demonii.com%3A1337","udp%3A%2F%2Ftracker.coppersurfer.tk%3A6969","udp%3A%2F%2Fexodus.desync.com%3A6969"],"infoHash":"988ce4580412726e96627ed310bf566969c1c1eb","infoHashBuffer":{"type":"Buffer","data":[152,140,228,88,4,18,114,110,150,98,126,211,16,191,86,105,105,193,193,235]},"announce":[],"urlList":[]}}